<svg xmlns="http://www.w3.org/2000/svg" xmlns:xlink="http://www.w3.org/1999/xlink" width="794" zoomAndPan="magnify" viewBox="0 0 595.5 842.249979" height="1123" preserveAspectRatio="xMidYMid meet" version="1.0"><defs><clipPath id="947db9f9e1"><path d="M 1.113281 0.449219 L 511.601562 0.449219 L 511.601562 512 L 1.113281 512 Z M 1.113281 0.449219 " clip-rule="nonzero"/></clipPath><clipPath id="041eba2dc2"><path d="M 107 369 L 405 369 L 405 561.164062 L 107 561.164062 Z M 107 369 " clip-rule="nonzero"/></clipPath><clipPath id="a14abe6987"><rect x="0" width="513" y="0" height="563"/></clipPath></defs><g transform="matrix(1, 0, 0, 1, 41, 151)"><g clip-path="url(#a14abe6987)"><g clip-path="url(#947db9f9e1)"><path fill="#78d1cc" d="M 511.621094 255.851562 C 511.621094 396.867188 397.378906 511.171875 256.4375 511.171875 C 115.496094 511.171875 1.253906 396.867188 1.253906 255.851562 C 1.25 114.835938 115.496094 0.53125 256.4375 0.53125 C 397.378906 0.527344 511.621094 114.835938 511.621094 255.851562 " fill-opacity="1" fill-rule="nonzero"/></g><path fill="#fac565" d="M 355.8125 122.980469 C 355.8125 159.578125 326.175781 189.230469 289.601562 189.230469 C 253.042969 189.230469 223.386719 159.578125 223.386719 122.980469 C 223.386719 86.386719 253.042969 56.734375 289.601562 56.734375 C 326.175781 56.734375 355.8125 86.386719 355.8125 122.980469 " fill-opacity="1" fill-rule="nonzero"/><path fill="#fac565" d="M 235.101562 122.980469 L 223.386719 122.980469 C 223.386719 122.980469 208.714844 320.605469 246.898438 383.195312 C 285.085938 445.785156 391.902344 444.304688 405.714844 373.585938 C 405.714844 373.585938 336.789062 401.839844 355.8125 122.980469 L 235.101562 122.980469 " fill-opacity="1" fill-rule="nonzero"/><g clip-path="url(#041eba2dc2)"><path fill="#ffffff" d="M 404.917969 511.871094 C 392.292969 521.300781 378.742188 529.558594 364.425781 536.46875 C 362.265625 537.523438 360.070312 538.53125 357.863281 539.523438 C 326.777344 553.472656 292.316406 561.226562 256.046875 561.226562 C 219.765625 561.226562 185.300781 553.472656 154.21875 539.523438 C 152.007812 538.53125 149.8125 537.523438 147.636719 536.46875 C 133.320312 529.542969 119.785156 521.300781 107.160156 511.871094 C 109.371094 462.515625 135.597656 419.398438 174.398438 393.941406 C 197.863281 378.546875 225.90625 369.605469 256.046875 369.605469 C 260.628906 369.605469 265.179688 369.816406 269.664062 370.222656 C 294.621094 372.480469 317.792969 380.886719 337.679688 393.941406 C 355.539062 405.664062 370.746094 421.121094 382.136719 439.199219 C 395.527344 460.417969 403.714844 485.242188 404.917969 511.871094 " fill-opacity="1" fill-rule="nonzero"/></g><path fill="#fbd5c0" d="M 337.664062 393.941406 C 335.390625 411.15625 327.800781 426.714844 316.574219 438.875 C 301.542969 455.183594 279.980469 465.40625 256.046875 465.40625 C 217.667969 465.40625 185.429688 439.152344 176.285156 403.613281 C 175.472656 400.460938 174.835938 397.226562 174.398438 393.941406 C 197.84375 378.546875 225.890625 369.605469 256.046875 369.605469 C 260.628906 369.605469 265.179688 369.796875 269.664062 370.222656 C 270.445312 370.285156 271.222656 370.367188 272.003906 370.449219 C 272.476562 370.496094 272.960938 370.546875 273.433594 370.613281 C 273.96875 370.660156 274.507812 370.742188 275.027344 370.808594 C 275.351562 370.839844 275.691406 370.886719 276.015625 370.9375 C 276.488281 370.984375 276.976562 371.066406 277.464844 371.132812 C 277.835938 371.179688 278.210938 371.246094 278.601562 371.292969 C 278.925781 371.34375 279.25 371.390625 279.574219 371.457031 C 280.128906 371.539062 280.679688 371.636719 281.234375 371.71875 C 283.589844 372.125 285.960938 372.578125 288.269531 373.097656 C 288.804688 373.210938 289.324219 373.328125 289.828125 373.441406 C 290.136719 373.523438 290.429688 373.585938 290.722656 373.667969 C 291.273438 373.796875 291.84375 373.929688 292.378906 374.074219 C 292.492188 374.089844 292.574219 374.105469 292.640625 374.125 C 293.320312 374.300781 294.019531 374.480469 294.703125 374.675781 C 295.449219 374.855469 296.183594 375.066406 296.898438 375.277344 C 297.742188 375.503906 298.554688 375.75 299.367188 375.992188 C 300 376.1875 300.632812 376.382812 301.269531 376.59375 C 301.675781 376.722656 302.097656 376.855469 302.488281 376.984375 C 303.167969 377.195312 303.835938 377.421875 304.46875 377.652344 C 305.28125 377.925781 306.078125 378.203125 306.875 378.496094 C 306.9375 378.527344 306.988281 378.546875 307.035156 378.5625 C 307.863281 378.855469 308.675781 379.164062 309.488281 379.472656 C 310.089844 379.714844 310.707031 379.941406 311.324219 380.203125 C 312.949219 380.835938 314.511719 381.503906 316.070312 382.1875 L 318.117188 383.113281 C 318.734375 383.390625 319.351562 383.683594 319.96875 383.976562 C 320.539062 384.25 321.089844 384.511719 321.644531 384.789062 C 322.164062 385.03125 322.667969 385.292969 323.1875 385.550781 C 323.511719 385.714844 323.851562 385.878906 324.179688 386.054688 C 325.511719 386.738281 326.84375 387.453125 328.125 388.167969 C 328.613281 388.429688 329.085938 388.707031 329.539062 388.964844 C 329.867188 389.144531 330.140625 389.308594 330.433594 389.46875 L 331.539062 390.121094 C 331.914062 390.347656 332.300781 390.574219 332.675781 390.804688 C 332.902344 390.949219 333.148438 391.097656 333.390625 391.242188 C 334.089844 391.648438 334.773438 392.070312 335.453125 392.511719 C 336.203125 392.980469 336.933594 393.453125 337.664062 393.941406 " fill-opacity="1" fill-rule="nonzero"/><path fill="#fbd5c0" d="M 284.742188 336.195312 L 284.742188 392.671875 C 284.742188 406.960938 273.058594 418.667969 258.777344 418.667969 L 253.300781 418.667969 C 239.019531 418.667969 227.351562 406.960938 227.351562 392.671875 L 227.351562 336.195312 C 227.351562 321.90625 239.019531 310.214844 253.300781 310.214844 L 258.777344 310.214844 C 273.058594 310.214844 284.742188 321.90625 284.742188 336.195312 " fill-opacity="1" fill-rule="nonzero"/><path fill="#f8a29e" d="M 284.742188 336.195312 L 284.742188 366.074219 C 276.210938 370.824219 267.160156 373.585938 257.964844 373.585938 C 247.144531 373.585938 236.808594 370.5625 227.351562 365.3125 L 227.351562 336.195312 C 227.351562 321.90625 239.019531 310.214844 253.300781 310.214844 L 258.777344 310.214844 C 273.058594 310.214844 284.742188 321.90625 284.742188 336.195312 " fill-opacity="1" fill-rule="nonzero"/><path fill="#fbd5c0" d="M 344.503906 301.175781 C 344.503906 301.175781 361.5 295.390625 372.371094 276.433594 C 384.167969 255.851562 376.757812 243.023438 374.417969 240.246094 C 368.035156 232.652344 358.171875 237.53125 356.546875 240.246094 C 354.921875 242.960938 331.394531 285.714844 344.503906 301.175781 " fill-opacity="1" fill-rule="nonzero"/><path fill="#f8a29e" d="M 361.175781 246.992188 C 361.175781 246.992188 371.949219 248.375 368.164062 263.542969 C 364.359375 278.726562 354.402344 284.726562 340.867188 292.480469 C 327.332031 300.234375 347.640625 250.082031 361.175781 246.992188 " fill-opacity="1" fill-rule="nonzero"/><path fill="#fbd5c0" d="M 171.976562 301.175781 C 171.976562 301.175781 154.980469 295.390625 144.128906 276.433594 C 132.332031 255.851562 139.738281 243.023438 142.078125 240.246094 C 148.464844 232.652344 158.328125 237.53125 159.953125 240.246094 C 161.578125 242.960938 185.105469 285.714844 171.976562 301.175781 " fill-opacity="1" fill-rule="nonzero"/><path fill="#f8a29e" d="M 155.324219 246.992188 C 155.324219 246.992188 144.535156 248.375 148.335938 263.542969 C 152.121094 278.726562 162.097656 284.726562 175.632812 292.480469 C 189.167969 300.234375 168.859375 250.082031 155.324219 246.992188 " fill-opacity="1" fill-rule="nonzero"/><path fill="#fbd5c0" d="M 361.175781 236.976562 C 361.175781 174.664062 315.191406 124.136719 258.484375 124.136719 C 201.761719 124.136719 155.777344 174.664062 155.777344 236.976562 C 155.777344 299.292969 201.761719 364.433594 258.484375 364.433594 C 311.78125 364.433594 361.175781 298.769531 361.175781 236.976562 " fill-opacity="1" fill-rule="nonzero"/><path fill="#fac565" d="M 267.714844 191.472656 C 267.714844 191.472656 287.050781 253.65625 359.714844 247.496094 C 359.714844 247.496094 372.386719 229.140625 368.097656 189.230469 C 363.257812 144.246094 323.445312 106.398438 258.484375 119.941406 C 258.484375 119.941406 252.554688 151.917969 267.714844 191.472656 " fill-opacity="1" fill-rule="nonzero"/><path fill="#fac565" d="M 270.964844 124.136719 C 270.964844 124.136719 273.675781 112.367188 263.929688 103.148438 C 254.179688 93.929688 125.082031 112.851562 155.777344 236.976562 C 155.777344 236.976562 185.855469 162.746094 265.554688 156.242188 L 270.964844 124.136719 " fill-opacity="1" fill-rule="nonzero"/></g></g></svg>